<svg width="199" height="39" viewBox="0 0 199 39" fill="none" xmlns="http://www.w3.org/2000/svg">
<path d="M197.456 36.7523C197.996 36.6388 198.342 36.1086 198.229 35.5681L196.379 26.7602C196.265 26.2198 195.735 25.8736 195.195 25.9871C194.654 26.1006 194.308 26.6308 194.422 27.1713L196.066 35.0005L188.237 36.6448C187.696 36.7583 187.35 37.2885 187.464 37.829C187.577 38.3695 188.107 38.7156 188.648 38.6021L197.456 36.7523ZM1.59926 31.7738C50.5923 -4.89891 122.44 -11.8727 196.703 36.611L197.797 34.9363C122.897 -13.9631 50.1281 -7.04973 0.400767 30.1727L1.59926 31.7738Z" fill="black"/>
</svg>
