<svg width="59" height="60" viewBox="0 0 59 60" fill="none" xmlns="http://www.w3.org/2000/svg">
<g clip-path="url(#clip0_1_1906)">
<path d="M51.5532 8.45077H46.6092V3.50683C46.6093 1.95289 45.3378 0.681641 43.7847 0.681641H7.76331C6.20948 0.681641 4.93823 1.95289 4.93823 3.50683V48.7093C4.93823 50.2631 6.20948 51.5345 7.76342 51.5345H12.7075V56.4785C12.7075 58.0324 13.9782 59.3037 15.5327 59.3037H39.5458C41.0989 59.3037 43.2969 58.4322 44.4277 57.3678L52.3198 49.9391C53.4519 48.8747 54.3772 46.7318 54.3772 45.178L54.3785 11.2762C54.3784 9.72213 53.1071 8.45077 51.5532 8.45077ZM12.7072 11.2761V49.4156H7.76331C7.38055 49.4156 7.0571 49.0922 7.0571 48.7094V3.50683C7.0571 3.12407 7.38055 2.80062 7.76331 2.80062H43.7848C44.1669 2.80062 44.491 3.12407 44.491 3.50683V8.45089H15.5324C13.9779 8.45089 12.7072 9.72213 12.7072 11.2761ZM50.8675 48.3964L42.9754 55.8245C42.8138 55.9765 42.6032 56.1254 42.3708 56.2673V49.7687C42.3708 49.2835 42.5664 48.8469 42.8892 48.5221C43.2148 48.1993 43.6513 48.0031 44.1365 48.0031H51.203C51.0934 48.1519 50.9812 48.289 50.8675 48.3964ZM52.2581 45.1778C52.2581 45.3875 52.2198 45.6305 52.162 45.884H44.1364C41.9929 45.8882 40.2561 47.625 40.2518 49.7686V57.0991C39.9997 57.1501 39.7567 57.1845 39.5456 57.1845H15.5324V57.1846C15.1489 57.1846 14.8262 56.8612 14.8262 56.4784V11.276C14.8262 10.8932 15.149 10.5697 15.5324 10.5697H51.5531C51.9359 10.5697 52.2593 10.8932 52.2593 11.276L52.2581 45.1778Z" fill="white"/>
<path d="M43.7847 18.3389H23.3024C22.7168 18.3389 22.2429 18.8128 22.2429 19.3983C22.2429 19.9838 22.7169 20.4577 23.3024 20.4577H43.7847C44.3695 20.4577 44.8441 19.9838 44.8441 19.3983C44.8441 18.8128 44.3695 18.3389 43.7847 18.3389Z" fill="white"/>
<path d="M43.7847 32.4648H23.3024C22.7168 32.4648 22.2429 32.9387 22.2429 33.5243C22.2429 34.1098 22.7169 34.5837 23.3024 34.5837H43.7847C44.3695 34.5837 44.8441 34.1098 44.8441 33.5243C44.8441 32.9386 44.3695 32.4648 43.7847 32.4648Z" fill="white"/>
<path d="M34.6031 39.5273H23.3026C22.7171 39.5273 22.2432 40.0012 22.2432 40.5868C22.2432 41.1723 22.7171 41.6462 23.3026 41.6462H34.6031C35.188 41.6462 35.6619 41.1723 35.6619 40.5868C35.6619 40.0012 35.188 39.5273 34.6031 39.5273Z" fill="white"/>
<path d="M43.7847 25.4019H23.3024C22.7168 25.4019 22.2429 25.8758 22.2429 26.4613C22.2429 27.0468 22.7169 27.5207 23.3024 27.5207H43.7847C44.3695 27.5207 44.8441 27.0468 44.8441 26.4613C44.8441 25.8758 44.3695 25.4019 43.7847 25.4019Z" fill="white"/>
</g>
<defs>
<clipPath id="clip0_1_1906">
<rect width="58.6221" height="58.6221" fill="white" transform="translate(0.347412 0.681641)"/>
</clipPath>
</defs>
</svg>
