<svg width="60" height="60" viewBox="0 0 60 60" fill="none" xmlns="http://www.w3.org/2000/svg">
<path d="M51.809 10.4319H29.5605C28.7307 10.4319 27.938 10.0356 27.4402 9.37173L24.0967 4.91377C23.2092 3.73043 21.7963 3.02393 20.317 3.02393H7.32849C4.72339 3.02393 2.60388 5.14343 2.60388 7.74854V52.229C2.60388 54.8341 4.72339 56.9536 7.32849 56.9536H51.809C54.4141 56.9536 56.5336 54.8341 56.5336 52.229V15.1565C56.5336 12.5513 54.4141 10.4319 51.809 10.4319ZM7.32849 5.09814H20.317C21.1468 5.09814 21.9395 5.49444 22.4373 6.1583L25.7809 10.6164C26.6684 11.7997 28.0813 12.5061 29.5605 12.5061H51.809C53.2704 12.5061 54.4594 13.6951 54.4594 15.1565V25.2477H49.1256V22.5643C49.1256 19.9592 47.0061 17.8397 44.401 17.8397H14.7364C12.1313 17.8397 10.0118 19.9592 10.0118 22.5643V25.2477H4.6781V7.74854C4.6781 6.28713 5.86709 5.09814 7.32849 5.09814ZM47.0514 25.2477H12.0861V22.5643C12.0861 21.1029 13.275 19.9139 14.7364 19.9139H44.4011C45.8625 19.9139 47.0515 21.1029 47.0515 22.5643V25.2477H47.0514ZM51.809 54.8794H7.32849C5.86709 54.8794 4.6781 53.6904 4.6781 52.229V27.3219H54.4594V52.229C54.4594 53.6904 53.2704 54.8794 51.809 54.8794Z" fill="white"/>
<path d="M29.5687 42.1379C30.1416 42.1379 30.6058 41.6737 30.6058 41.1008V33.6929C30.6058 33.12 30.1416 32.6558 29.5687 32.6558C28.9959 32.6558 28.5316 33.12 28.5316 33.6929V41.1008C28.5316 41.6735 28.9959 42.1379 29.5687 42.1379Z" fill="white"/>
<path d="M29.571 47.4717H29.5699C28.9971 47.4717 28.5333 47.936 28.5333 48.5088C28.5333 49.0816 28.9982 49.5459 29.571 49.5459C30.1438 49.5459 30.6081 49.0816 30.6081 48.5088C30.6081 47.936 30.1438 47.4717 29.571 47.4717Z" fill="white"/>
</svg>
