<svg width="40" height="58" viewBox="0 0 40 58" fill="none" xmlns="http://www.w3.org/2000/svg">
<path d="M3.97969 57.3563H36.1537C38.1446 57.3563 39.765 55.7359 39.765 53.745V5.81601C39.765 3.82511 38.1446 2.20473 36.1537 2.20473H31.5475V1.34335C31.5475 0.944611 31.224 0.621121 30.8253 0.621121H23.7768L16.3558 0.621119L9.30639 0.621121C8.90765 0.621121 8.58416 0.944611 8.58416 1.34335V2.20473H3.97981C1.98891 2.20473 0.36853 3.82511 0.36853 5.81601V53.745C0.368408 55.736 1.98879 57.3563 3.97969 57.3563ZM17.8003 0.62115C17.8003 0.62115 20.1663 0.621121 22.3322 0.621121L17.8003 0.62115ZM10.0285 2.06559H30.1029V3.70282C30.1029 5.16805 28.9113 6.35952 27.4462 6.35952H12.6852C11.22 6.35952 10.0285 5.16793 10.0285 3.70282V2.06559ZM1.81299 5.81601C1.81299 4.62162 2.78542 3.64932 3.97969 3.64932H8.58404V3.70294C8.58404 5.96468 10.4236 7.8041 12.6852 7.8041H27.4462C29.708 7.8041 31.5474 5.96456 31.5474 3.70294V3.64932H36.1536C37.348 3.64932 38.3203 4.62174 38.3203 5.81601V53.745C38.3203 54.9394 37.3478 55.9117 36.1536 55.9117H3.97969C2.7853 55.9117 1.81299 54.9392 1.81299 53.745V5.81601Z" fill="white"/>
<path d="M7.36335 19.9207C7.50445 20.0618 7.6888 20.1323 7.874 20.1323C8.05932 20.1323 8.24354 20.0618 8.38464 19.9207L13.6878 14.6176C13.9698 14.3355 13.9698 13.8784 13.6878 13.5963C13.4057 13.3142 12.9486 13.3142 12.6665 13.5963L7.874 18.3888L6.70782 17.2226C6.42575 16.9406 5.96861 16.9406 5.68653 17.2226C5.40446 17.5047 5.40446 17.9618 5.68653 18.2439L7.36335 19.9207Z" fill="white"/>
<path d="M17.5275 14.5797H33.9352C34.334 14.5797 34.6574 14.2562 34.6574 13.8575C34.6574 13.4587 34.334 13.1353 33.9352 13.1353H17.5275C17.1288 13.1353 16.8053 13.4587 16.8053 13.8575C16.8053 14.2562 17.1288 14.5797 17.5275 14.5797Z" fill="white"/>
<path d="M17.5275 17.4801H33.9352C34.334 17.4801 34.6574 17.1566 34.6574 16.7579C34.6574 16.3591 34.334 16.0356 33.9352 16.0356H17.5275C17.1288 16.0356 16.8053 16.3591 16.8053 16.7579C16.8053 17.1566 17.1288 17.4801 17.5275 17.4801Z" fill="white"/>
<path d="M17.5275 20.3815H25.5955C25.9942 20.3815 26.3177 20.058 26.3177 19.6592C26.3177 19.2605 25.9942 18.937 25.5955 18.937H17.5275C17.1288 18.937 16.8053 19.2605 16.8053 19.6592C16.8053 20.058 17.1288 20.3815 17.5275 20.3815Z" fill="white"/>
<path d="M7.36335 32.9417C7.49883 33.0772 7.6822 33.1533 7.874 33.1533C8.06579 33.1533 8.24928 33.0771 8.38464 32.9417L13.6878 27.6386C13.9698 27.3565 13.9698 26.8994 13.6878 26.6173C13.4057 26.3352 12.9486 26.3352 12.6665 26.6173L7.874 31.4098L6.70782 30.2428C6.4266 29.9615 5.96959 29.9597 5.68653 30.2428C5.40446 30.5248 5.40446 30.982 5.68653 31.2641L7.36335 32.9417Z" fill="white"/>
<path d="M17.5275 27.6012H33.9352C34.334 27.6012 34.6574 27.2777 34.6574 26.879C34.6574 26.4802 34.334 26.1567 33.9352 26.1567H17.5275C17.1288 26.1567 16.8053 26.4802 16.8053 26.879C16.8053 27.2777 17.1288 27.6012 17.5275 27.6012Z" fill="white"/>
<path d="M17.5275 30.5016H33.9352C34.334 30.5016 34.6574 30.1781 34.6574 29.7794C34.6574 29.3806 34.334 29.0571 33.9352 29.0571H17.5275C17.1288 29.0571 16.8053 29.3806 16.8053 29.7794C16.8053 30.1781 17.1288 30.5016 17.5275 30.5016Z" fill="white"/>
<path d="M17.5275 33.4025H25.5955C25.9942 33.4025 26.3177 33.079 26.3177 32.6802C26.3177 32.2815 25.9942 31.958 25.5955 31.958H17.5275C17.1288 31.958 16.8053 32.2815 16.8053 32.6802C16.8053 33.079 17.1288 33.4025 17.5275 33.4025Z" fill="white"/>
<path d="M7.36335 45.9622C7.50445 46.1033 7.6888 46.1738 7.874 46.1738C8.05932 46.1738 8.24354 46.1033 8.38464 45.9622L13.6878 40.6591C13.9698 40.377 13.9698 39.9199 13.6878 39.6378C13.4057 39.3558 12.9486 39.3558 12.6665 39.6378L7.874 44.4303L6.70782 43.2641C6.42575 42.9821 5.96861 42.9821 5.68653 43.2641C5.40446 43.5462 5.40446 44.0033 5.68653 44.2854L7.36335 45.9622Z" fill="white"/>
<path d="M17.5275 40.6212H33.9352C34.334 40.6212 34.6574 40.2977 34.6574 39.899C34.6574 39.5002 34.334 39.1768 33.9352 39.1768H17.5275C17.1288 39.1768 16.8053 39.5002 16.8053 39.899C16.8053 40.2976 17.1288 40.6212 17.5275 40.6212Z" fill="white"/>
<path d="M17.5275 43.5226H33.9352C34.334 43.5226 34.6574 43.1991 34.6574 42.8004C34.6574 42.4016 34.334 42.0781 33.9352 42.0781H17.5275C17.1288 42.0781 16.8053 42.4016 16.8053 42.8004C16.8053 43.1991 17.1288 43.5226 17.5275 43.5226Z" fill="white"/>
<path d="M17.5275 46.423H25.5955C25.9942 46.423 26.3177 46.0995 26.3177 45.7007C26.3177 45.302 25.9942 44.9785 25.5955 44.9785H17.5275C17.1288 44.9785 16.8053 45.302 16.8053 45.7007C16.8053 46.0995 17.1288 46.423 17.5275 46.423Z" fill="white"/>
</svg>
