<svg width="60" height="60" viewBox="0 0 60 60" fill="none" xmlns="http://www.w3.org/2000/svg">
<path d="M51.7835 4.18018H7.53353C5.90414 4.1821 4.34204 4.83022 3.18989 5.98237C2.03774 7.13452 1.38961 8.69662 1.3877 10.326V37.3677C1.38961 38.9971 2.03774 40.5592 3.18989 41.7113C4.34204 42.8635 5.90414 43.5116 7.53353 43.5135H9.99186V53.2917C9.98729 53.7927 10.1336 54.2835 10.4116 54.7003C10.6897 55.1171 11.0868 55.4406 11.5512 55.6288C12.0007 55.8102 12.4945 55.8519 12.9681 55.7484C13.4417 55.645 13.8732 55.4013 14.2062 55.049L25.2665 43.5135H51.7835C53.4129 43.5116 54.975 42.8635 56.1272 41.7113C57.2793 40.5592 57.9274 38.9971 57.9294 37.3677V10.326C57.9274 8.69662 57.2793 7.13452 56.1272 5.98237C54.975 4.83022 53.4129 4.1821 51.7835 4.18018V4.18018ZM55.471 37.3677C55.47 38.3453 55.0811 39.2826 54.3898 39.974C53.6985 40.6653 52.7612 41.0541 51.7835 41.0552H24.7419C24.5762 41.0552 24.4122 41.0887 24.2597 41.1537C24.1073 41.2187 23.9696 41.3138 23.8548 41.4333L12.4502 53.2917V42.2843C12.4503 42.1229 12.4186 41.963 12.3568 41.8138C12.2951 41.6647 12.2046 41.5291 12.0904 41.415C11.9762 41.3008 11.8407 41.2103 11.6915 41.1485C11.5424 41.0868 11.3825 41.0551 11.221 41.0552H7.53353C6.55587 41.0541 5.61857 40.6653 4.92726 39.974C4.23595 39.2826 3.8471 38.3453 3.84603 37.3677V10.326C3.8471 9.34835 4.23595 8.41105 4.92726 7.71974C5.61857 7.02843 6.55587 6.63958 7.53353 6.63851H51.7835C52.7612 6.63958 53.6985 7.02843 54.3898 7.71974C55.0811 8.41105 55.47 9.34835 55.471 10.326V37.3677ZM13.6794 16.4718C13.6793 16.3104 13.711 16.1505 13.7727 16.0013C13.8345 15.8522 13.925 15.7166 14.0392 15.6025C14.1533 15.4883 14.2889 15.3978 14.438 15.336C14.5872 15.2743 14.7471 15.2426 14.9085 15.2427H27.2002C27.5262 15.2427 27.8388 15.3722 28.0694 15.6027C28.2999 15.8332 28.4294 16.1458 28.4294 16.4718C28.4294 16.7978 28.2999 17.1105 28.0694 17.341C27.8388 17.5715 27.5262 17.701 27.2002 17.701H14.9085C14.7471 17.7011 14.5872 17.6694 14.438 17.6076C14.2889 17.5459 14.1533 17.4554 14.0392 17.3412C13.925 17.2271 13.8345 17.0915 13.7727 16.9423C13.711 16.7932 13.6793 16.6333 13.6794 16.4718V16.4718ZM40.721 31.2218C40.7211 31.3833 40.6894 31.5432 40.6277 31.6923C40.5659 31.8415 40.4754 31.9771 40.3612 32.0912C40.2471 32.2054 40.1115 32.2959 39.9624 32.3576C39.8132 32.4194 39.6533 32.4511 39.4919 32.451H14.9085C14.5825 32.451 14.2699 32.3215 14.0394 32.091C13.8089 31.8605 13.6794 31.5478 13.6794 31.2218C13.6794 30.8958 13.8089 30.5832 14.0394 30.3527C14.2699 30.1222 14.5825 29.9927 14.9085 29.9927H39.4919C39.6533 29.9926 39.8132 30.0243 39.9624 30.086C40.1115 30.1478 40.2471 30.2383 40.3612 30.3525C40.4754 30.4666 40.5659 30.6022 40.6277 30.7513C40.6894 30.9005 40.7211 31.0604 40.721 31.2218V31.2218ZM45.6377 23.8468C45.6378 24.0083 45.6061 24.1682 45.5443 24.3173C45.4826 24.4665 45.3921 24.6021 45.2779 24.7162C45.1637 24.8304 45.0282 24.9209 44.879 24.9826C44.7299 25.0444 44.57 25.0761 44.4085 25.076H14.9085C14.5825 25.076 14.2699 24.9465 14.0394 24.716C13.8089 24.4855 13.6794 24.1728 13.6794 23.8468C13.6794 23.5208 13.8089 23.2082 14.0394 22.9777C14.2699 22.7472 14.5825 22.6177 14.9085 22.6177H44.4085C44.57 22.6176 44.7299 22.6493 44.879 22.711C45.0282 22.7728 45.1637 22.8633 45.2779 22.9775C45.3921 23.0916 45.4826 23.2272 45.5443 23.3763C45.6061 23.5255 45.6378 23.6854 45.6377 23.8468V23.8468Z" fill="white"/>
</svg>
