<svg width="59" height="59" viewBox="0 0 59 59" fill="none" xmlns="http://www.w3.org/2000/svg">
<path d="M23.1457 43.4378C20.4074 43.4378 17.749 42.8999 15.2432 41.8413C12.8242 40.8175 10.6551 39.3564 8.79137 37.4927C6.92766 35.629 5.46308 33.4564 4.44272 31.0409C3.38419 28.5386 2.84625 25.8801 2.84625 23.1383C2.84625 20.3966 3.38419 17.7416 4.44272 15.2358C5.46655 12.8168 6.92766 10.6477 8.79137 8.78398C10.6551 6.92028 12.8277 5.45569 15.2432 4.43534C17.7455 3.37681 20.404 2.83887 23.1457 2.83887C25.8875 2.83887 28.5425 3.37681 31.0482 4.43534C33.4672 5.45916 35.6364 6.92028 37.5001 8.78398C39.3638 10.6477 40.8284 12.8203 41.8487 15.2358C42.9072 17.7381 43.4452 20.3966 43.4452 23.1383C43.4452 25.8801 42.9072 28.5351 41.8487 31.0409C40.8249 33.4599 39.3638 35.629 37.5001 37.4927C35.6364 39.3564 33.4638 40.821 31.0482 41.8413C28.5425 42.8999 25.884 43.4378 23.1457 43.4378ZM23.1457 4.50475C12.8728 4.50475 4.51213 12.8619 4.51213 23.1383C4.51213 33.4147 12.8693 41.7719 23.1457 41.7719C33.4187 41.7719 41.7793 33.4147 41.7793 23.1383C41.7793 12.8619 33.4187 4.50475 23.1457 4.50475Z" fill="white"/>
<path d="M23.1457 38.8565C21.0252 38.8565 18.9671 38.44 17.0271 37.6209C15.1564 36.8296 13.4732 35.6947 12.0329 34.2545C10.5891 32.8107 9.45772 31.1309 8.66643 29.2603C7.8439 27.3167 7.42743 25.2587 7.42743 23.1382C7.42743 21.0176 7.8439 18.9596 8.66296 17.0195C9.45425 15.1489 10.5891 13.4656 12.0294 12.0253C13.4697 10.585 15.153 9.45016 17.0236 8.65887C18.9602 7.83981 21.0217 7.42334 23.1423 7.42334C25.2628 7.42334 27.3208 7.83981 29.2609 8.65887C31.1315 9.45016 32.8148 10.585 34.2551 12.0253C35.6954 13.4656 36.8303 15.1489 37.6215 17.0195C38.4406 18.9561 38.8571 21.0176 38.8571 23.1382C38.8571 25.2587 38.4406 27.3167 37.6215 29.2568C36.8303 31.1275 35.6954 32.8107 34.2551 34.251C32.8148 35.6913 31.1315 36.8262 29.2609 37.6175C27.3243 38.44 25.2663 38.8565 23.1457 38.8565ZM23.1457 9.08575C15.3959 9.08575 9.09331 15.3918 9.09331 23.1382C9.09331 30.8845 15.3959 37.1906 23.1457 37.1906C30.8955 37.1906 37.1981 30.888 37.1981 23.1382C37.1981 15.3883 30.8921 9.08575 23.1457 9.08575Z" fill="white"/>
<path d="M51.3095 56.161C50.0115 56.161 48.7934 55.6543 47.8737 54.7381L33.1792 40.0436C32.853 39.7174 32.853 39.1899 33.1792 38.8671C33.5054 38.5409 34.033 38.5409 34.3557 38.8671L49.0502 53.5616C49.6541 54.1655 50.4558 54.4952 51.3061 54.4952C52.1182 54.4952 52.8956 54.1898 53.4856 53.6345C54.1138 53.0445 54.4712 52.2427 54.4851 51.3716C54.499 50.4797 54.1589 49.6433 53.5272 49.0082L38.871 34.3519C38.5447 34.0256 38.5447 33.4981 38.871 33.1753C39.1972 32.8491 39.7247 32.8491 40.0475 33.1753L54.7072 47.8351C55.6617 48.7895 56.1753 50.0563 56.1545 51.4029C56.1337 52.7252 55.5922 53.9538 54.6274 54.8526C53.7251 55.696 52.5485 56.161 51.3095 56.161Z" fill="white"/>
<path d="M19.8764 29.0522C19.6543 29.0522 19.4426 28.9654 19.2864 28.8092L15.6597 25.1824C15.3334 24.8562 15.3334 24.3287 15.6597 24.0059C15.9859 23.6797 16.5134 23.6797 16.8362 24.0059L19.8729 27.0427L29.4483 17.4673C29.7745 17.1411 30.3021 17.1411 30.6248 17.4673C30.9511 17.7936 30.9511 18.3211 30.6248 18.6439L20.4664 28.8092C20.3102 28.9654 20.0985 29.0522 19.8764 29.0522Z" fill="white"/>
<path d="M46.5826 53.1001C46.3709 53.1001 46.1557 53.0202 45.9926 52.8571C45.6664 52.5309 45.6664 52.0033 45.9926 51.6806L51.6844 45.9888C52.0106 45.6626 52.5381 45.6626 52.8609 45.9888C53.1871 46.3151 53.1871 46.8426 52.8609 47.1653L47.1691 52.8571C47.0095 53.0168 46.7943 53.1001 46.5826 53.1001Z" fill="white"/>
</svg>
