<svg width="60" height="60" viewBox="0 0 60 60" fill="none" xmlns="http://www.w3.org/2000/svg">
<path d="M46.6644 19.3872H38.3675V13.856C38.3675 11.6555 37.4934 9.54515 35.9374 7.98918C34.3815 6.43321 32.2711 5.55908 30.0706 5.55908C27.8702 5.55908 25.7598 6.43321 24.2039 7.98918C22.6479 9.54515 21.7738 11.6555 21.7738 13.856V19.3872H13.4769C12.2544 19.3872 11.082 19.8728 10.2176 20.7373C9.35315 21.6017 8.86752 22.7741 8.86752 23.9966V49.8091C8.86752 51.0316 9.35315 52.204 10.2176 53.0684C11.082 53.9328 12.2544 54.4185 13.4769 54.4185H46.6644C47.8869 54.4185 49.0593 53.9328 49.9237 53.0684C50.7881 52.204 51.2738 51.0316 51.2738 49.8091V23.9966C51.2738 22.7741 50.7881 21.6017 49.9237 20.7373C49.0593 19.8728 47.8869 19.3872 46.6644 19.3872V19.3872ZM23.6175 13.856C23.6175 12.1445 24.2974 10.5031 25.5076 9.29291C26.7178 8.08271 28.3592 7.40283 30.0706 7.40283C31.7821 7.40283 33.4235 8.08271 34.6337 9.29291C35.8439 10.5031 36.5238 12.1445 36.5238 13.856V19.3872H23.6175V13.856ZM49.43 49.8091C49.43 50.5426 49.1386 51.246 48.62 51.7647C48.1013 52.2833 47.3979 52.5747 46.6644 52.5747H13.4769C12.7434 52.5747 12.04 52.2833 11.5213 51.7647C11.0027 51.246 10.7113 50.5426 10.7113 49.8091V23.9966C10.7113 23.2631 11.0027 22.5596 11.5213 22.041C12.04 21.5223 12.7434 21.231 13.4769 21.231H46.6644C47.3979 21.231 48.1013 21.5223 48.62 22.041C49.1386 22.5596 49.43 23.2631 49.43 23.9966V49.8091ZM33.0022 30.5235C32.4147 30.0739 31.7318 29.7653 31.0061 29.6215C30.2805 29.4776 29.5315 29.5024 28.8169 29.6938C27.99 29.913 27.2372 30.3504 26.6371 30.9602C26.0371 31.5699 25.6119 32.3297 25.406 33.16C25.2574 33.7843 25.2347 34.4319 25.3391 35.065C25.4436 35.6981 25.6731 36.3041 26.0144 36.8475C26.3529 37.3298 26.545 37.8996 26.5675 38.4885V43.3375C26.5675 43.582 26.6646 43.8165 26.8375 43.9894C27.0104 44.1623 27.2449 44.2594 27.4894 44.2594H32.6519C32.8964 44.2594 33.1309 44.1623 33.3038 43.9894C33.4766 43.8165 33.5738 43.582 33.5738 43.3375V38.5069C33.5793 37.9465 33.7527 37.4006 34.0716 36.9397C34.5895 36.1649 34.8655 35.2536 34.8644 34.3216C34.8652 33.5882 34.6977 32.8645 34.3749 32.206C34.0521 31.5475 33.5824 30.9719 33.0022 30.5235V30.5235ZM32.5413 35.9256C32.0177 36.685 31.735 37.5845 31.73 38.5069V42.4341H28.4113V38.5069C28.392 37.5641 28.0971 36.6476 27.5631 35.8703C27.3612 35.5465 27.2262 35.1856 27.166 34.8087C27.1059 34.4319 27.1218 34.0468 27.2128 33.6763C27.3189 33.1881 27.5472 32.7349 27.8763 32.3591C28.2054 31.9833 28.6245 31.6972 29.0944 31.5277C29.5643 31.3582 30.0696 31.3107 30.5628 31.3898C31.056 31.469 31.5211 31.672 31.9144 31.98C32.2695 32.2586 32.5568 32.614 32.7548 33.0196C32.9528 33.4251 33.0563 33.8703 33.0575 34.3216C33.0472 34.8955 32.8676 35.4535 32.5413 35.9256V35.9256Z" fill="white"/>
</svg>
